<svg id="Layer_1" data-name="Layer 1" xmlns="http://www.w3.org/2000/svg" xmlns:xlink="http://www.w3.org/1999/xlink" viewBox="0 0 900.31 779.69"><defs><style>.cls-1{fill:none;}.cls-2{fill:#fff;}.cls-3{isolation:isolate;}.cls-4{clip-path:url(#clip-path);}.cls-5{fill:#eea648;}</style><clipPath id="clip-path" transform="translate(257.49 115.88)"><rect class="cls-1" x="-245.79" y="-105.78" width="876.91" height="759.49"/></clipPath></defs><title>WCMCR-Logo-Outlined</title><polygon class="cls-2" points="675.23 0 225.08 0 0 389.85 225.08 779.69 675.23 779.69 900.31 389.85 675.23 0"/><g class="cls-3"><g class="cls-4"><path class="cls-5" d="M276.65,116.91,206.59,330.58l49.86,139c17.25,1,33.57,3.09,33.57,3.09,17.25,1,15.23,27.86-2,26.83,0,0-52.85-4.14-84.3-4.14-33.46,0-85.31,4.14-85.31,4.14-17.25,1-19.29-24.75-2-26.83,0,0,17.36-2.06,36.63-3.09L37.3,119.59,5.37,228.09C-8.45,273.14-19,305.48-19,333.34c0,40.25,14.21,68.1,26.39,89.79C23.62,450,38.84,472.65,38.84,499.48c0,28.93-20.89,55.85-50.69,57.6a52.81,52.81,0,0,1-7.34.56h0L4.84,599.32H380.5l60-103.95c-33.47.25-81.88,4.11-81.88,4.11-17.25,1-19.28-24.75-2-26.83,0,0,17.34-2.06,36.63-3.09ZM5-51.38Q-89.11,111.24-183,274L-85.9,442.11c0-.83,0-1.65,0-2.49,0-33,6.08-70.16,24.34-116.61,32.18-94.63,65-190.39,96.48-284.51,9-26,17.34-47.8,33.91-47.82,14.92,0,20.29,7.59,27.68,23.59l95,274.16c31.85-94.13,63.77-190.37,96.4-283.05,3.9-10,11.24-15.09,22.11-15.09,10.68,0,15.89,4.63,20.27,15.48C378.4,140,428,279.95,481.1,425L568.29,274,380.5-51.38H5Z" transform="translate(257.49 115.88)"/><path class="cls-5" d="M402.66-89.77,612.65,274l-210,363.75h-420L-227.32,274l210-363.74h420Zm9.23-16H-26.56L-245.79,274-26.56,653.71H411.89L631.12,274,411.89-105.78Z" transform="translate(257.49 115.88)"/></g></g></svg>