<?xml version="1.0" encoding="UTF-8" standalone="no"?>
<svg
   xmlns:dc="http://purl.org/dc/elements/1.1/"
   xmlns:cc="http://creativecommons.org/ns#"
   xmlns:rdf="http://www.w3.org/1999/02/22-rdf-syntax-ns#"
   xmlns:svg="http://www.w3.org/2000/svg"
   xmlns="http://www.w3.org/2000/svg"
   version="1.1"
   id="svg3415"
   viewBox="0 0 744.09359 1219.8356"
   height="1100.4418"
   width="1096.1344">
  <metadata
     id="metadata3427">
    <rdf:RDF>
      <cc:Work
         rdf:about="">
        <dc:format>image/svg+xml</dc:format>
        <dc:type
           rdf:resource="http://purl.org/dc/dcmitype/StillImage" />
        <dc:title></dc:title>
      </cc:Work>
    </rdf:RDF>
  </metadata>
  <defs
     id="defs3425" />
  <style
     id="style3417">
		.hexagon{
			fill:#eea548;
		}
	</style>
  <path
     style="fill:#eea548"
     id="path3419"
     d="m 111.95618,75.382855 0,0 c -86.896,150.206005 -173.615,300.516005 -260.38,450.798005 44.827,77.661 89.654,155.321 134.481,232.981 -0.011,-1.15 -0.039,-2.282 -0.039,-3.445 0,-45.757 8.4250004,-97.22 33.727,-161.576 44.588,-131.124 90.084,-263.817 133.682,-394.228 12.501,-36.074 24.022,-66.238 46.992,-66.254 20.669,-0.017 28.111,10.52 38.356,32.686 l 131.613,379.887 c 44.134,-130.427 88.369,-263.789 133.58,-392.206 5.403,-13.892 15.572,-20.916 30.627,-20.916 14.796,0 22.02,6.421 28.089,21.456 66.712,186.045 135.48,379.903 209.023,580.918 40.27,-69.768 80.54,-139.535 120.811,-209.303 -86.737,-150.267 -173.473,-300.535 -260.209,-450.803005 l -520.352,0 z m 376.454,233.172005 -97.072,296.074 69.095,192.573 c 23.898,1.428 46.52,4.282 46.52,4.282 23.903,1.439 21.101,38.601 -2.812,37.178 0,0 -73.233,-5.735 -116.81,-5.735 -46.37,0 -118.206,5.735 -118.206,5.735 -23.908,1.423 -26.732,-34.3 -2.834,-37.178 0,0 24.057,-2.854 50.753,-4.282 l -160.272,-484.926 -44.249,150.336 c -19.147,62.423 -33.746,107.229 -33.746,145.834 0,55.771 19.689,94.363 36.561,124.409 22.477,37.177 43.565,68.63 43.565,105.807 0,40.09 -28.939,77.387 -70.236,79.818 -3.298,0.462 -6.662,0.777 -10.176,0.777 -0.011,0 -0.02,0 -0.03,0 11.108,19.244 22.216,38.488 33.324,57.733 l 520.523,0 c 27.711,-48.009 55.422,-96.018 83.133,-144.027 -46.371,0.355 -113.456,5.701 -113.456,5.701 -23.897,1.423 -26.716,-34.3 -2.834,-37.178 0,0 24.031,-2.854 50.753,-4.282 l -161.494,-488.647 z"
     class="hexagon" />
  <path
     style="fill:#eea548"
     id="path3421"
     d="m 675.81218,0.00485506 c -202.51,0 -405.028,-0.011 -607.534,0 l -303.762,526.17600494 303.764,526.18104 607.532,0 c 101.255,-175.39404 202.51,-350.78704 303.765,-526.18104 -101.255,-175.393 -202.51,-350.787 -303.765,-526.18000493974 z m -12.795,22.16999994 c 96.991,168.003005 193.981,336.006005 290.969,504.011005 l -290.97,504.01104 -581.941,0 -290.969,-504.01104 290.969,-504.006005 581.941,0 z"
     class="hexagon" />
  <text
     id="text8161"
     y="1202.0999"
     x="-131.83057"
     style="font-style:normal;font-weight:normal;font-size:88.67971039px;line-height:125%;font-family:sans-serif;letter-spacing:0px;word-spacing:0px;fill:#000000;fill-opacity:1;stroke:none;stroke-width:1px;stroke-linecap:butt;stroke-linejoin:miter;stroke-opacity:1"
     xml:space="preserve"><tspan
       style="font-style:normal;font-variant:normal;font-weight:normal;font-stretch:normal;font-size:88.67971039px;font-family:'PT Mono';-inkscape-font-specification:'PT Mono';fill:#ad4c23;fill-opacity:1"
       y="1202.0999"
       x="-131.83057"
       id="tspan8163">WordCamp Manchester</tspan></text>
</svg>
