<svg xmlns="http://www.w3.org/2000/svg" width="1096.135" height="949.36" viewBox="0 0 744.094 1052.362">
	<style>
		.hexagon{
			fill:#eea548;
		}
	</style>
	<path class="hexagon" d="m111.957 75.383 0 0C25.061 225.589-61.658 375.899-148.423 526.181c44.827 77.661 89.654 155.321 134.481 232.981-0.011-1.15-0.039-2.282-0.039-3.445 0-45.757 8.425-97.22 33.727-161.576 44.588-131.124 90.084-263.817 133.682-394.228 12.501-36.074 24.022-66.238 46.992-66.254 20.669-0.017 28.111 10.52 38.356 32.686L370.389 546.232c44.134-130.427 88.369-263.789 133.58-392.206 5.403-13.892 15.572-20.916 30.627-20.916 14.796 0 22.02 6.421 28.089 21.456C629.397 340.611 698.165 534.469 771.708 735.484 811.978 665.716 852.248 595.949 892.519 526.181 805.782 375.914 719.046 225.646 632.31 75.378l-520.352 0zM488.411 308.555 391.339 604.629 460.434 797.202c23.898 1.428 46.52 4.282 46.52 4.282 23.903 1.439 21.101 38.601-2.812 37.178 0 0-73.233-5.735-116.81-5.735-46.37 0-118.206 5.735-118.206 5.735-23.908 1.423-26.732-34.3-2.834-37.178 0 0 24.057-2.854 50.753-4.282L156.773 312.276 112.524 462.612C93.377 525.035 78.778 569.841 78.778 608.446c0 55.771 19.689 94.363 36.561 124.409 22.477 37.177 43.565 68.63 43.565 105.807 0 40.09-28.939 77.387-70.236 79.818-3.298 0.462-6.662 0.777-10.176 0.777-0.011 0-0.02 0-0.03 0 11.108 19.244 22.216 38.488 33.324 57.733l520.523 0c27.711-48.009 55.422-96.018 83.133-144.027-46.371 0.355-113.456 5.701-113.456 5.701-23.897 1.423-26.716-34.3-2.834-37.178 0 0 24.031-2.854 50.753-4.282L488.411 308.557Z"/>
	<path class="hexagon" d="m675.813 0.005c-202.51 0-405.028-0.011-607.534 0L-235.483 526.181 68.281 1052.362l607.532 0C777.068 876.968 878.323 701.575 979.578 526.181 878.323 350.788 777.068 175.394 675.813 0.001ZM663.018 22.175C760.009 190.178 856.999 358.181 953.987 526.186l-290.97 504.011-581.941 0L-209.893 526.186 81.076 22.18l581.941 0z"/>
</svg>