<svg xmlns="http://www.w3.org/2000/svg" width="375" height="362.348" viewBox="0 0 300 330">
<style>
  .a{
    fill:#ffd401;
  }
  .b{
    fill:#ffd501;
  }
  .c{
    fill:#fc0;
  }
  .d{
    fill:#ffd900;
  }
  .e{
    fill:#454a37;
  }
  .f{
    fill:#010100;
  }
  .g{
    fill:#474b38;
  }
  .h{
    fill:#4a4e3b;
  }
  .i{
    fill:#464a38;
  }
  .j{
    fill:#51553f;
  }
  .k{
    fill:#50543e;
  }
  .l{
    fill:#535741;
  }
  .m{
    fill:#424242;
  }
  .n{
    fill:#626262;
  }
  .o{
    fill:#ffd200;
  }
  .p{
    fill:#fff;
  }
  .q{
    fill:#414141;
  }
  .r{
    fill:#616161;
  }
  .s{
    fill:#ffcf00;
  }
  .t{
    fill:#1d1d1d;
  }
</style>
  <path d="m148.144 4.881c5.476-6.478 16.518-6.512 22.051-0.08 6.307 6.341 4.77 18.055-2.869 22.643-4.474 3.165-10.189 2.709-15.129 1.047-4.508 4.85-8.686 9.984-12.83 15.141 7.821 2.129 15.425 5.191 22.21 9.654 2.106 1.252 4.144 3.04 6.739 2.96 20.856 0.797 41.734-0.114 62.59 0.467 4.702-0.159 9.164 3.324 9.506 8.128 0.387 6.728-3.586 12.807-7.923 17.588-9.176 9.528-22.632 15.175-35.917 13.911 2.265 5.032 4.03 10.268 5.453 15.596 17.987-14.947 36.748-29.246 57.615-39.958 11.316-5.863 22.95-11.441 35.382-14.481 4.998-1.104 10.701-2.14 15.346 0.66 5.806 3.529 8.823 10.064 10.394 16.427l0 5.339c-5.544 18.226-13.365 37.374-29.325 48.906-25.079 14.731-54.997 21.357-83.912 17.167 1.753 26.901-0.171 54.94-11.543 79.746-4.337 9.802-11.27 18.112-19.148 25.239-12.01 35.814-43.203 63.216-78.584 74.93-27.06 9.893-58.787 1.138-78.971-18.818-3.996-4.223-7.525-9.164-8.959-14.868-1.992-8.299 1.355-18.055 8.971-22.347 7.013-3.928 15.813-2.835 22.7 0.842 6.853 3.484 12.044 9.437 16.029 15.904 5.396 8.584 16.644 10.519 26.001 9.403 19.524-2.413 37.226-13.262 50.523-27.447-4.576 0.421-9.187 0.41-13.741 1.047-3.905 3.165-7.684 6.853-12.75 8.083-6.386 1.765-13.911 1.73-19.433-2.379-3.028-2.197-4.622-5.692-6.227-8.937-14.572-1.537-28.779-6.66-40.812-15.027-2.197 5.385-7.286 9.711-13.365 9.221-11.623-0.717-21.243-8.493-29.462-16.074-8.811-8.971-17.611-19.398-19.512-32.24l0-4.679c1.002-6.284 4.303-12.397 9.938-15.642 4.167-2.652 9.244-2.926 14.037-2.687-2.265-18.192 0.877-37.135 9.585-53.334 2.778-3.882 0.592-8.686 1.195-13.046C7.927 119.974 1.529 117.117-2.957 111.903-10.686 103.057-14.659 91.616-17.118 80.301-19.122 73.208-15.354 65.342-9.366 61.403-3.742 58.363 2.758 61.187 8.336 62.94 19.527 67.232 30.114 73.026 40.098 79.629 45.71 71.774 52.507 64.75 60.407 59.172 54.806 53.138 49 47.287 42.75 41.925 38.254 43.006 33.199 43.769 29.112 41.037 21.963 37.064 20.324 26.351 25.891 20.375c5.043-6.204 15.528-6.193 20.571 0.011 4.371 4.656 4.053 11.828 1.025 17.11 6.808 5.259 12.762 11.509 18.408 17.975 19.786-12.01 43.658-15.983 66.483-13.388 4.542-6.295 9.312-12.454 14.777-17.975-3.78-5.783-3.984-14.059 0.99-19.228z"/>
  <path d="m156.284 6.327c6.978-2.835 14.697 5.51 11.179 12.215-2.3 5.749-10.735 7.366-14.788 2.539-4.645-4.406-2.413-12.875 3.609-14.754z" class="a"/>
  <path d="m33.097 21.741c6.25-3.028 13.763 4.519 10.633 10.735-1.935 5.225-9.437 6.944-13.262 2.744-4.349-3.825-2.675-11.475 2.63-13.479z" class="b"/>
  <path d="m100.874 51.556c18.799-3.233 39.305-1.503 55.616 9.016 0.871 1.651-0.928 3.427-1.158 5.134 6.19 8.811 15.704 14.56 24.862 19.934 2.052 1.321 3.06 3.666 4.482 5.555-6.087 4.667-13.17 10.064-21.274 9.13-2.568-2.129-4.551-4.827-6.614-7.388-5.445-7.058-11.978-13.16-18.294-19.399-7.668-7.605-17.664-12.614-28.117-15.221-4.321-1.116-8.654-2.186-12.976-3.279 2.132-0.763 4.276-1.514 6.396-2.3-0.55-0.228-1.662-0.672-2.212-0.899l-0.711-0.285z" class="c"/>
  <path d="m90.154 54.174c3.996-0.979 8.037-2.63 12.181-2.334 0.546 0.228 1.651 0.672 2.197 0.899-2.106 0.786-4.235 1.537-6.352 2.3 4.292 1.093 8.595 2.163 12.887 3.279 10.382 2.607 20.309 7.616 27.925 15.221 6.273 6.238 12.762 12.34 18.169 19.398 2.049 2.561 4.019 5.259 6.569 7.388 1.787 1.685 4.383 1.776 6.648 2.322 6.455 1.286 13.217 2.379 19.66 0.41 2.744 7.309 4.531 14.925 6.238 22.529-13.524 8.527-30.566 11.202-46.071 7.514-7.07-3.438-14.56-6.386-22.563-6.375 1.56-8.162-0.501-16.404-3.563-23.952 6.739 0.421 13.297 2.026 19.706 4.053 0.148-0.785 0.433-2.356 0.569-3.142-7.605-3.051-15.79-4.463-23.986-4.428-0.683-1.195-1.366-2.391-2.049-3.586-9.802 3.142-20.218 5.988-30.566 4.053-4.212-0.694-8.06-2.664-11.817-4.611-5.942 8.902-15.892 14.549-26.24 16.587-3.449 0.82-6.09-2.345-7.525-5.055-2.607-5.749-0.592-12.352 2.357-17.554 9.881-17.031 26.855-29.394 45.627-34.915z" class="d"/>
  <path d="m295.978 67.209c4.041-0.945 9.688-2.243 12.135 2.231 4.565 5.373 2.152 12.477 0.034 18.317-8.253-0.672-16.621-1.548-24.84-0.091-7.445 1.025-14.526 3.677-21.311 6.819 0.433-4.417 0.808-8.845 1.184-13.274 10.564-5.43 21.277-10.86 32.798-14.002z" class="e"/>
  <path d="m109.575 68.757c3.404-1.002 6.978 3.836 4.11 6.489-1.856 2.846-6.512 1.594-7.195-1.514-0.717-2.163 1.025-4.428 3.085-4.975z" class="f"/>
  <path d="m-7.26 82.008c-0.558-4.076-1.229-9.016 2.561-11.862 10.223 0.296 19.137 6.375 28.062 10.781 0.137 2.22 0.273 4.44 0.41 6.66C14.199 82.646 3.384 81.348-7.26 82.008Z" class="g"/>
  <path d="m79.908 81.359c1.719-0.262 3.78-0.74 5.043 0.831-0.626 6.307-9.255 10.61-14.241 6.068-0.854-4.588 5.681-6.159 9.198-6.899z"/>
  <path d="m54.818 82.133c3.984-2.618 8.47 4.178 4.303 6.774-4.315 3.78-9.79-4.497-4.303-6.774z"/>
  <path d="m25.663 82.452c2.357 1.343 4.702 2.698 7.047 4.053-2.174 1.298-4.337 2.596-6.478 3.928-0.216-2.664-0.398-5.316-0.569-7.98z" class="h"/>
  <path d="m227.127 104.378c10.325-7.912 21.174-15.141 32.604-21.357 1.025 9.597-1.332 20.286-9.244 26.525-10.997 8.845-26.035 8.914-39.434 8.14 4.793-5.089 10.61-9.005 16.074-13.308z" class="i"/>
  <path d="m-6.156 84.217c10.462-0.66 21.186 1.195 30.498 6.079-0.023 0.342-0.068 1.013-0.091 1.355C16.909 95.737 9.179 99.153 0.891 100.769-2.046 95.521-4.494 90-6.156 84.217Z" class="j"/>
  <path d="m273.016 93.244c10.917-3.233 22.563-4.986 33.856-2.732-3.29 7.661-6.933 15.266-12.17 21.812-11.691-5.942-25.159-5.1-37.829-4.041 1.617-3.438 2.812-7.115 4.918-10.303 3.176-2.607 7.411-3.427 11.225-4.736z" class="k"/>
  <path d="m1.631 102.261c3.279-0.99 6.591-1.799 9.95-2.436 0.433 2.766 0.307 5.783 1.73 8.288 1.947 2.379 4.576 4.053 6.922 6.011-7.411-1.469-13.877-6.079-18.602-11.862z" class="l"/>
  <path d="m68.843 108.203c2.596-2.857 5.407-5.533 8.231-8.162 5.647 2.345 11.657 3.575 17.691 4.474-3.495 2.22-7.001 4.44-10.485 6.671-5.123-1.104-10.246-2.288-15.437-2.983z" class="m"/>
  <path d="m87.968 113.223c5.965-5.111 13.672-7.525 21.174-9.335 4.189 7.32 7.388 15.346 8.105 23.816-7.274 1.241-14.378 3.643-21.755 4.167-7.753-1.89-11.27-11.919-7.525-18.647z" class="d"/>
  <path d="m55.341 115.136c4.269-2.687 8.629-5.487 13.502-6.933 5.191 0.694 10.314 1.878 15.437 2.983-2.106 2.311-4.144 4.679-6.079 7.126-7.354-2.493-15.095-3.677-22.859-3.176z" class="n"/>
  <path d="m259.219 110.207c11.521-1.047 23.724-1.537 34.471 3.484-4.258 4.781-9.437 8.709-15.391 11.111-8.31 3.814-16.871 7.138-25.671 9.597-2.55 0.49-5.749 1.856-7.821-0.433-5.282-4.872-10.69-9.597-16.325-14.071 6.375-1.047 12.966-1.753 18.875-4.531 3.916-1.81 7.354-4.952 11.862-5.157z" class="k"/>
  <path d="m41.1 112.301c2.607 1.446 5.259 2.823 7.946 4.132-1.696 0.603-3.381 1.241-5.066 1.878 0 1.548 0.011 3.096 0.011 4.656 6.409-2.493 13.24-3.495 20.093-3.472-1.833 15.676-3.552 31.363-5.51 47.016-6.534-11.464-12.841-23.076-19.068-34.71 1.844-2.812 4.064-5.726 4.087-9.244 0.228-3.597-1.207-6.978-2.493-10.257z" class="n"/>
  <path d="m27.097 119.496c2.63-2.334 5.977-4.542 9.665-4.189 1.286 1.15 2.277 2.596 3.324 3.973-3.427 4.394-7.183 8.857-12.375 11.202-1.252 0.945-3.677 0.865-4.019-0.979-1.799-3.677 0.786-7.536 3.404-10.007z" class="o"/>
  <path d="m49.046 116.434c2.015-0.763 4.144-1.218 6.295-1.298 7.764-0.501 15.505 0.683 22.859 3.176-0.524 1.514-1.047 3.028-1.571 4.531-1.617-0.535-3.233-1.059-4.861-1.56 11.407 19.877 22.336 40.026 33.105 60.245 2.823-15.824-0.683-32.957-10.951-45.525 1.673-0.239 3.358-0.478 5.055-0.694 12.318 17.657 14.435 41.825 5.1 61.258-0.888-0.49-2.675-1.491-3.563-1.992 0.672-1.673 1.343-3.347 1.992-5.032-5.703 1.605-11.259 3.78-17.156 4.622 0.467-3.632 3.848-5.066 6.762-6.386C83.244 171.191 75.184 154.161 65.928 137.779c-1.434 11.623-3.096 23.28-3.632 34.972 2.698 7.047 7.274 13.206 10.439 20.059 2.254-0.137 4.519-0.285 6.774-0.398 0.125 0.911 0.364 2.732 0.478 3.643-9.289 1.662-18.454 3.905-27.458 6.728-0.194-0.911-0.569-2.744-0.751-3.666 2.14-0.888 4.292-1.753 6.455-2.618-8.823-16.723-17.258-33.651-26.126-50.352-0.808 7.912-1.321 15.847-2.083 23.759-0.615 6.66-0.467 13.786 3.165 19.66 3.176 5.942 9.824 10.314 10.12 17.554 0.353 4.121-3.131 6.842-5.954 9.21 8.276 4.576 17.782 7.32 27.288 5.977 5.886-0.581 11.35-2.971 16.644-5.442 0.228 1.56 0.433 3.131 0.638 4.713-8.789 4.019-18.499 6.774-28.221 5.191C37.434 224.571 23.42 212.982 16.51 198.342c-3.119-6.318-4.633-13.251-6.011-20.127-1.696-15.38 3.108-30.84 11.543-43.624 1.514 0.706 3.04 1.4 4.576 2.083-15.152 18.966-15.949 47.586-1.947 67.405-0.99-6.512-2.049-13.103-1.173-19.683 1.787-15.858 3.723-31.693 5.715-47.517 3.814-0.831 7.229-2.709 10.291-5.077 6.227 11.635 12.534 23.246 19.068 34.71 1.958-15.653 3.677-31.34 5.51-47.016-6.853-0.023-13.684 0.979-20.093 3.472 0-1.56-0.011-3.108-0.011-4.656 1.685-0.638 3.37-1.275 5.066-1.878z" class="p"/>
  <path d="m204.951 121.124c5.954-0.376 11.931-0.979 17.896-0.615 2.117 0.068 3.973 1.229 5.692 2.368 5.339 3.802 10.462 8.037 14.378 13.354-12.09 1.332-24.316 1.264-36.384-0.216-0.763-4.941-1.389-9.893-1.582-14.89z" class="k"/>
  <path d="m71.769 121.283c1.628 0.501 3.244 1.025 4.861 1.56 0.455 2.755 0.546 5.965 2.857 7.923 3.723 3.893 9.255 4.998 14.435 5.237 10.268 12.568 13.775 29.701 10.952 45.525C94.104 161.31 83.175 141.16 71.769 121.283Z" class="n"/>
  <path d="m111.397 132.463c10.029-1.901 20.81-3.415 30.487 0.797 4.884 2.231 10.496 4.303 13.581 8.948 3.609 11.942 7.013 24.396 5.362 36.987-0.626 6.011-2.607 11.76-4.804 17.361-9.005 0.444-18.226 2.573-25.478 8.185-4.053 3.051-7.218 7.058-10.416 10.929-1.275-2.231-2.561-4.451-3.882-6.648 12.739-18.26 14.253-43.191 5.294-63.375-2.322-5.02-4.485-11.077-10.143-13.183z" class="q"/>
  <path d="m98.976 135.309c4.155-0.877 8.253-2.026 12.42-2.846 5.658 2.106 7.821 8.162 10.143 13.183 8.959 20.184 7.445 45.115-5.294 63.375-3.449-4.713-7.377-9.085-12.17-12.454 9.335-19.433 7.218-43.601-5.1-61.258z" class="n"/>
  <path d="m26.619 136.675c0.649 0.046 1.947 0.148 2.596 0.205-1.992 15.824-3.928 31.659-5.715 47.517-0.877 6.58 0.182 13.171 1.173 19.683-14.002-19.82-13.206-48.439 1.947-67.405z" class="r"/>
  <path d="m65.928 137.779c9.255 16.382 17.315 33.412 26.183 49.999-2.914 1.321-6.295 2.755-6.762 6.386 5.897-0.842 11.452-3.017 17.156-4.622-0.649 1.685-1.321 3.358-1.992 5.032-4.167-1.025-8.959-1.275-12.306 1.89-6.591 4.463-8.14 13.001-6.922 20.4-5.294 2.47-10.758 4.861-16.644 5.442-9.506 1.343-19.011-1.4-27.288-5.977 2.823-2.368 6.307-5.089 5.954-9.21-0.296-7.24-6.944-11.612-10.12-17.554-3.632-5.874-3.78-13.001-3.165-19.66 0.763-7.912 1.275-15.847 2.083-23.759 8.868 16.7 17.304 33.629 26.126 50.352-2.163 0.865-4.315 1.73-6.455 2.618 0.182 0.922 0.558 2.755 0.751 3.666 9.005-2.823 18.169-5.066 27.458-6.728-0.114-0.911-0.353-2.732-0.478-3.643-2.254 0.114-4.519 0.262-6.774 0.398-3.165-6.853-7.741-13.012-10.439-20.059 0.535-11.691 2.197-23.349 3.632-34.972z" class="n"/>
  <path d="m164.389 143.687c11.088 4.041 23.724 3.313 33.97-2.721 0.729 9.574 1.161 19.159 0.865 28.756-7.935-0.307-15.733 1.434-23.246 3.802-0.41-5.066-0.968-10.132-2.163-15.084 1.491-0.66 2.948-1.412 4.406-2.163-4.44-4.383-9.232-8.379-13.832-12.591z" class="s"/>
  <path d="m155.464 142.207c4.838 2.516 9.654 5.647 12.659 10.337 2.277 4.554 2.869 9.733 3.506 14.731 0.888 10.576 0.82 21.436-2.254 31.682-4.44-0.899-8.891-1.685-13.354-2.402 2.197-5.601 4.178-11.35 4.804-17.361 1.651-12.591-1.753-25.045-5.362-36.987z" class="t"/>
  <path d="m10.499 178.215c1.377 6.876 2.892 13.809 6.011 20.127 6.91 14.64 20.924 26.229 37.192 28.426 9.722 1.582 19.433-1.173 28.221-5.191 0.854 3.757 1.81 7.502 2.983 11.191-7.434 4.44-16.359 4.349-24.703 3.7C49 235.352 38.459 230.559 29.34 224.104 24.399 217.866 21.656 210.125 16.385 204.08 9.725 197.523 8.177 186.958 10.499 178.215Z" class="n"/>
  <path d="m175.91 182.951c7.274-2.379 14.981-1.104 22.336 0.262-1.036 10.451-3.392 20.73-6.523 30.748-4.406-6.774-12.135-9.494-19.103-12.739 1.673-5.977 2.732-12.09 3.29-18.271z" class="c"/>
  <path d="m-6.907 200.528c5.419-4.087 12.5-1.321 17.349 2.277-7.479 3.848-14.162 8.982-20.833 14.048-1.48-5.521-1.719-12.636 3.484-16.325z" class="o"/>
  <path d="m87.046 217.741c-0.922-6.341-0.558-14.697 6.25-17.657 5.692-1.958 10.234 3.279 14.014 6.717-7.445 2.209-13.9 6.626-20.264 10.94z" class="o"/>
  <path d="m142.213 202.384c5.339-1.309 10.94-2.55 16.439-1.56 12.306 4.588 23.531 14.469 26.081 27.845-4.497 7.058-10.246 13.319-17.258 17.919-2.391-17.361-13.911-31.579-25.261-44.204z" class="d"/>
  <path d="m122.257 220.769c1.229-4.167 4.406-7.593 7.388-10.678 1.992 0.387 3.131 2.425 4.519 3.757 9.506 11.555 13.365 26.582 15.596 41.085-0.854 1.161-2.47 1.264-3.723 1.81-8.071 2.573-16.541 3.78-24.999 3.848 2.163-7.4 4.781-14.913 4.406-22.745-0.034-5.851-1.799-11.464-3.188-17.076z" class="d"/>
  <path d="m-2 229.91c7.115-4.713 14.139-9.54 21.152-14.378 4.383 7.707 8.789 15.437 12.272 23.611 1.195 3.506 2.22 7.844 0.091 11.191-2.88 1.969-6.546 0.49-9.472-0.615-9.597-4.337-17.179-11.999-24.043-19.808z" class="o"/>
  <path d="m89.505 228.567c7.878-4.736 16.666-7.605 25.284-10.656 4.963 10.599 6.694 22.996 2.846 34.232-1.491 7.4-6.352 15.164-14.389 16.336-4.497 1.195-10.496-0.455-11.111-5.783-1.605-11.316 1.241-23.064-2.63-34.13z" class="o"/>
  <path d="m29.34 224.104c9.119 6.455 19.66 11.247 30.862 12.363 8.345 0.649 17.27 0.74 24.703-3.7 1.184 9.028 0.797 18.135 0.581 27.208-16.598-0.877-32.627-7.57-45.593-17.85-5.703-4.428-7.809-11.657-10.553-18.021z" class="q"/>
  <path d="m155.794 256.025c3.973-1.799 7.775-3.996 11.885-5.487-1.89 8.743-6.876 16.37-11.669 23.781-3.586-2.22-7.434-3.95-11.418-5.282 4.041-4.087 5.339-10.997 11.202-13.012z" class="c"/>
  <path d="m126.731 286.592c5.157-3.984 10.018-8.367 14.367-13.228 4.041 1.4 7.912 3.21 11.543 5.464-5.225 6.284-10.951 12.135-17.19 17.429-2.618-3.472-5.464-6.774-8.72-9.665z" class="c"/>
  <path d="m96.13 302.131c7.775-2.334 15.255-5.601 22.165-9.859 3.552 2.857 6.853 6.034 9.79 9.528-7.946 5.715-16.621 10.36-25.705 13.98-1.947-4.611-3.928-9.21-6.25-13.65z" class="c"/>
</svg>