<svg xmlns="http://www.w3.org/2000/svg" width="70000" height="61588.246" viewBox="0 0 315 315">
  <path d="m298.82431-0.0000026077691c-1.43204 0-2.80258 0.1263999977691-4.14688 0.3116399977691C277.84691 1.2857874 266.05241 16.230337 266.05241 32.294057c0 14.89641 8.59427 27.49887 17.75508 42.39529 6.87592 12.03926 14.90047 27.502943 14.90047 49.849693 0 15.46868-5.95015 33.42181-13.75364 58.43429L266.92084 243.21097 201.60142 48.906467c10.87978-0.57229 20.68449-1.7161 20.68448-1.7161 9.73948-1.15308 8.58859-15.46647-1.15514-14.89631 0 0-29.27699 2.29781-48.17515 2.29781-17.75996 0-47.60589-2.29781-47.60589-2.29781-9.74585-0.57016-10.88842 14.31978-1.14682 14.89631 0 0 9.2206 1.14381 18.96007 1.7161L171.32262 126.06814 131.76116 244.70267 65.943124 48.906467c10.890416-0.57229 20.684485-1.7161 20.684485-1.7161 9.733097-1.15308 8.584335-15.46647-1.15514-14.89631 0 0-29.272738 2.29781-48.175148 2.29781-16.9866-0.1796-35.3492301-1.15653-51.36267-2.17731-4.96415-0.34745-7.44608 1.95211-7.44608 6.91007 0 4.25792 2.1306 6.57091 6.38236 6.91837 8.8684099 0.71238 16.12569989 1.24294 21.8022299 1.59143C40.309321 137.62408 71.408225 223.92353 101.49036 306.40295c2.47332 6.02403 5.41729 8.59706 11.44749 8.59706 6.13562 0 10.2803-2.81458 12.48217-8.38099 18.42605-51.45551 36.45433-104.89239 54.44116-157.15304l53.63921 152.21669c4.17507 8.88144 7.20817 13.10384 15.63178 13.09712 9.36159-0.007 14.05653-12.0931 19.15123-26.54744 17.76863-52.25455 36.31057-105.42334 54.48271-157.9633 10.31176-25.78683 13.74533-46.407483 13.74533-64.741853 0-4.14557-0.18927-8.08451-0.50693-11.87135C331.62246 26.275667 320.30349 0.63906739 298.82431-0.0000026077692Z"/>
</svg>