<svg xmlns="http://www.w3.org/2000/svg" width="1096.135" height="949.36" viewBox="0 0 744.094 1052.362">
  <style>
    .background{
      fill:#fff;
    }
    .hexagon{
      fill:#eea548;
    }
  </style>
  <path class="background" d="m671.759 1045.297-599.424 0L-227.377 526.181 72.335 7.065 671.759 7.065 971.471 526.181Z"/>
  <path class="hexagon" d="m631.312 77.126c-172.844 0.001-345.689 0.003-518.533 0.004C26.377 226.814-60.025 376.498-146.428 526.183c86.402 149.685 172.806 299.368 259.209 449.053l518.531 0C717.715 825.55 804.118 675.867 890.522 526.183 804.118 376.497 717.715 226.812 631.312 77.126Zm-6.914 11.981 252.258 437.074-252.258 437.074-504.702 0L-132.569 526.181 119.696 89.107Z"/>
  <path class="hexagon" d="m675.813 0.005c-202.51 0-405.028-0.011-607.534 0l-303.762 526.176 303.764 526.181 607.532 0C777.068 876.968 878.323 701.575 979.578 526.181 878.323 350.788 777.068 175.394 675.813 0.001Zm-12.795 22.17c96.991 168.003 193.981 336.006 290.969 504.011l-290.97 504.011-581.941 0L-209.893 526.186 81.076 22.18l581.941 0z"/>
</svg>
