<svg xmlns="http://www.w3.org/2000/svg" width="1096.135" height="949.36" viewBox="0 0 744.094 1052.362">
  <style>
    .hexagon{
      fill:#eea548;
    }
  </style>
  <path class="hexagon" d="M112.344 76.373C25.796 226.309-60.751 376.245-147.299 526.182c86.548 149.937 173.096 299.874 259.645 449.811 173.135 0 346.27 0 519.404 0C718.298 826.055 804.846 676.118 891.395 526.182 804.846 376.244 718.298 226.307 631.75 76.369c-173.135 0.001-346.271 0.003-519.406 0.004z"/>
  <path class="hexagon" d="m675.813 0.005c-202.51 0-405.028-0.011-607.534 0L-235.483 526.181 68.281 1052.362l607.532 0C777.068 876.968 878.323 701.575 979.578 526.181 878.323 350.788 777.068 175.394 675.813 0.001ZM663.018 22.175C760.009 190.178 856.999 358.181 953.987 526.186l-290.97 504.011-581.941 0L-209.893 526.186 81.076 22.18l581.941 0z"/>
</svg>