<svg id="Layer_1" data-name="Layer 1" xmlns="http://www.w3.org/2000/svg" viewBox="0 0 1153.46 469.66"><defs><style>.cls-1{fill:#fff;}</style></defs><title>Untitled-1</title><path d="M214.12,541.29a6.64,6.64,0,0,1-2.37,2.16v.16a7.34,7.34,0,0,0,3.7-4.85c-.08-.42-.18-.84-.26-1.27A6.25,6.25,0,0,1,214.12,541.29Z" transform="translate(651.88 -179.8)"/><path class="cls-1" d="M500.53,485.19v-1.85h1V481.5H428.53v1.85h1v1.85h1.79v35.66h-2.84v1.85h1v1.85h1.79v33.08H404.64v-17.4h-184v5.51l-8.93-.27h.06v-2a6.64,6.64,0,0,0,2.38-2.16,6.25,6.25,0,0,0,1.06-3.8c.08.43.18.84.26,1.27a7.13,7.13,0,0,0-.9-5.35,7.44,7.44,0,0,0-5.74-3.5l0,0L186.1,478.73h.06v-1.86h-1.93V465.39h-.79V453.91h-.89v11.48h-.79v11.48h-1.93v1.86h.06l-4.76,10.74V312.76H153.08v-47H132.92v-33h-3.63v33H83.84v47H66.1V450.31l-26,30L28.94,434l-4.09,19.26H-26.4V408h1v-7.28h1.06v-3.21H-23v-1.69h-3.63L-28.69,389l-21.74-72-23.81,78.89h-3.63v1.69h1.34v3.21h1.06V408h1v45.31h-51.26L-129.81,434l-11.27,53.06h-.61v1.24h.55V491h-.55v1.24h.55v3.34H-163.2l-.34-98.1h.44v-1.28h.32v-1.28h-2V348.33h.36V347h.26v-1.28h-1.05V332.19h.8v-1.28h.26v-1.28h-.26l-5.83-15.18h0l-5.82,15.18h-.26v1.28h.26v1.28h.8v13.58h-1.06V347h.26v1.28h-1.65V322.56h.27v-1.32h-.27V303.11h.27v-1.32h.4L-206,206V179.8h-2V206l-28.95,95.78h.4v1.32h.27v18.12h-.27v1.32h.27v25.77h-1.28V347h.26v-1.28h-1.05V332.19h.8v-1.28h.26v-1.28h-.26l-5.82-15.18h0l-5.83,15.18h-.26v1.28h.26v1.28h.8v13.58h-1.05V347h.26v1.28h.36v46.61l-1.7,1.28v1.28h.44l.41,98.1h-18.57V285.7h-76.23v13.59h-55.16V478.16h-20v17.44h-9.76v-2.32h.42V492h.3v-1.28h-1.22V477.13h.92v-1.28h.3v-1.28h-.3l-6.74-15.18h0l-6.74,15.18h-.3v1.28h.3v1.28h.92v13.57h-1.22V492h.3v1.28L-476.6,450v-7h-1v-3.81h-.95V443h-1v7l-32.71,43.29h-1.4V492h.3v-1.28l-1.22-13.57h.92v-1.28h.3v-1.28h-.3l-6.74-15.18-6.74,15.18h-.3v1.28h.3v1.28h.92v13.57h-1.22V492h.3v1.28h.42v46.61H-529v1.28h.37v1.28h.51v8.25h-42.5v2.92h-3.25V302.83h-5.23v19h-53.6v131h7.9v131h-27.11v65.66H501.58v-1.85h-1v-1.85h-1.79V605.14h1.79v-1.85h1v-1.85h-2.84V563.92h1.79v-1.85h1v-1.85h-2.84V524.54h1.79V522.7h1v-1.85h-2.84V485.19Z" transform="translate(651.88 -179.8)"/></svg>